<svg xmlns="http://www.w3.org/2000/svg" width="1200" height="720" viewBox="0 0 1200 720"><rect width="1200" height="720" fill="#0c0c0f"/><rect x="24" y="24" width="250" height="672" rx="14" fill="#121217" stroke="#29272f"/><rect x="294" y="24" width="590" height="672" rx="14" fill="#101014" stroke="#29272f"/><rect x="904" y="24" width="272" height="672" rx="14" fill="#121217" stroke="#29272f"/><circle cx="55" cy="58" r="12" fill="#8265d2"/><text x="76" y="64" fill="#eee" font-family="sans-serif" font-size="18">Nocturne Codex</text><rect x="318" y="48" width="540" height="44" rx="8" fill="#17151d"/><text x="338" y="76" fill="#bba9e8" font-family="sans-serif" font-size="15">Review Mode · apenas sugere</text><rect x="330" y="132" width="470" height="120" rx="12" fill="#17171c"/><rect x="380" y="290" width="450" height="190" rx="12" fill="#15141a"/><rect x="328" y="610" width="520" height="58" rx="14" fill="#18171d" stroke="#383440"/><text x="930" y="64" fill="#eee" font-family="sans-serif" font-size="16">Sugestões</text><rect x="924" y="94" width="232" height="100" rx="10" fill="#18151d" stroke="#d36c78"/><rect x="924" y="210" width="232" height="100" rx="10" fill="#18151d" stroke="#d3a15f"/><text x="470" y="350" fill="#77717f" font-family="sans-serif" font-size="22">Interface Beta</text></svg>
